<svg width="130.407mm" height="86.469mm" viewBox="0 0 130.407 86.469" xmlns="http://www.w3.org/2000/svg"><g id="svgGroup" stroke-linecap="round" fill-rule="evenodd" font-size="9pt" stroke="#000" stroke-width="0.25mm" fill="none" style="stroke:#000;stroke-width:0.25mm;fill:none"><path d="M 115.845 52.831 L 130.407 63.412 L 113.655 86.469 L 99.093 75.888 L 115.845 52.831 Z M 86.222 53.859 L 103.341 59.422 L 97.778 76.541 L 80.659 70.978 L 86.222 53.859 Z M 0 40 L 18 40 L 18 58 L 0 58 L 0 40 Z M 18 40 L 36 40 L 36 58 L 18 58 L 18 40 Z M 0 23 L 18 23 L 18 41 L 0 41 L 0 23 Z M 18 23 L 36 23 L 36 41 L 18 41 L 18 23 Z M 0 6 L 18 6 L 18 24 L 0 24 L 0 6 Z M 18 6 L 36 6 L 36 24 L 18 24 L 18 6 Z M 36 36 L 54 36 L 54 54 L 36 54 L 36 36 Z M 36 19 L 54 19 L 54 37 L 36 37 L 36 19 Z M 36 2 L 54 2 L 54 20 L 36 20 L 36 2 Z M 54 34 L 72 34 L 72 52 L 54 52 L 54 34 Z M 54 17 L 72 17 L 72 35 L 54 35 L 54 17 Z M 54 0 L 72 0 L 72 18 L 54 18 L 54 0 Z M 72 36 L 90 36 L 90 54 L 72 54 L 72 36 Z M 72 19 L 90 19 L 90 37 L 72 37 L 72 19 Z M 72 2 L 90 2 L 90 20 L 72 20 L 72 2 Z M 90 38 L 108 38 L 108 56 L 90 56 L 90 38 Z M 90 21 L 108 21 L 108 39 L 90 39 L 90 21 Z M 90 4 L 108 4 L 108 22 L 90 22 L 90 4 Z M 63 53 L 81 53 L 81 71 L 63 71 L 63 53 Z" vector-effect="non-scaling-stroke"/></g></svg>