<svg width="298mm" height="86.469mm" viewBox="0 0 298 86.469" xmlns="http://www.w3.org/2000/svg"><g id="svgGroup" stroke-linecap="round" fill-rule="evenodd" font-size="9pt" stroke="#000" stroke-width="0.25mm" fill="none" style="stroke:#000;stroke-width:0.25mm;fill:none"><path d="M 115.845 52.831 L 130.407 63.412 L 113.655 86.469 L 99.093 75.888 L 115.845 52.831 Z M 167.593 63.412 L 182.155 52.831 L 198.907 75.888 L 184.345 86.469 L 167.593 63.412 Z M 86.222 53.859 L 103.341 59.422 L 97.778 76.541 L 80.659 70.978 L 86.222 53.859 Z M 194.659 59.422 L 211.778 53.859 L 217.341 70.978 L 200.222 76.541 L 194.659 59.422 Z M 0 40 L 18 40 L 18 58 L 0 58 L 0 40 Z M 18 40 L 36 40 L 36 58 L 18 58 L 18 40 Z M 0 23 L 18 23 L 18 41 L 0 41 L 0 23 Z M 18 23 L 36 23 L 36 41 L 18 41 L 18 23 Z M 0 6 L 18 6 L 18 24 L 0 24 L 0 6 Z M 18 6 L 36 6 L 36 24 L 18 24 L 18 6 Z M 36 36 L 54 36 L 54 54 L 36 54 L 36 36 Z M 36 19 L 54 19 L 54 37 L 36 37 L 36 19 Z M 36 2 L 54 2 L 54 20 L 36 20 L 36 2 Z M 54 34 L 72 34 L 72 52 L 54 52 L 54 34 Z M 54 17 L 72 17 L 72 35 L 54 35 L 54 17 Z M 54 0 L 72 0 L 72 18 L 54 18 L 54 0 Z M 72 36 L 90 36 L 90 54 L 72 54 L 72 36 Z M 72 19 L 90 19 L 90 37 L 72 37 L 72 19 Z M 72 2 L 90 2 L 90 20 L 72 20 L 72 2 Z M 90 38 L 108 38 L 108 56 L 90 56 L 90 38 Z M 90 21 L 108 21 L 108 39 L 90 39 L 90 21 Z M 90 4 L 108 4 L 108 22 L 90 22 L 90 4 Z M 63 53 L 81 53 L 81 71 L 63 71 L 63 53 Z M 280 40 L 298 40 L 298 58 L 280 58 L 280 40 Z M 280 58 L 280 40 L 262 40 L 262 58 L 280 58 Z M 280 23 L 298 23 L 298 41 L 280 41 L 280 23 Z M 280 41 L 280 23 L 262 23 L 262 41 L 280 41 Z M 280 6 L 298 6 L 298 24 L 280 24 L 280 6 Z M 280 24 L 280 6 L 262 6 L 262 24 L 280 24 Z M 244 36 L 262 36 L 262 54 L 244 54 L 244 36 Z M 244 19 L 262 19 L 262 37 L 244 37 L 244 19 Z M 244 2 L 262 2 L 262 20 L 244 20 L 244 2 Z M 226 34 L 244 34 L 244 52 L 226 52 L 226 34 Z M 226 17 L 244 17 L 244 35 L 226 35 L 226 17 Z M 226 0 L 244 0 L 244 18 L 226 18 L 226 0 Z M 208 36 L 226 36 L 226 54 L 208 54 L 208 36 Z M 208 19 L 226 19 L 226 37 L 208 37 L 208 19 Z M 208 2 L 226 2 L 226 20 L 208 20 L 208 2 Z M 190 38 L 208 38 L 208 56 L 190 56 L 190 38 Z M 190 21 L 208 21 L 208 39 L 190 39 L 190 21 Z M 190 4 L 208 4 L 208 22 L 190 22 L 190 4 Z M 217 53 L 235 53 L 235 71 L 217 71 L 217 53 Z" vector-effect="non-scaling-stroke"/></g></svg>