0
SECTION
2
HEADER
9
$INSUNITS
70
4
0
ENDSEC
0
SECTION
2
TABLES
0
TABLE
2
LTYPE
0
LTYPE
72
65
70
64
2
CONTINUOUS
3
______
73
0
40
0
0
ENDTAB
0
TABLE
2
LAYER
0
ENDTAB
0
ENDSEC
0
SECTION
2
ENTITIES
0
LINE
8
0
10
122.4001087
20
-8.2104273
11
122.4743688
21
-15.334102
0
LINE
8
0
10
122.0925115
20
-16.5305201
11
107.6690746
21
-36.3826779
0
LINE
8
0
10
104.8754701
20
-36.8251413
11
92.5795189
21
-27.8916099
0
LINE
8
0
10
91.1370002
20
-27.5275392
11
87.1472373
21
-28.0648772
0
LINE
8
0
10
86.2622551
20
-27.9848856
11
73.1393729
21
-23.7210027
0
LINE
8
0
10
72.8563813
20
-23.6513787
11
70.3663289
21
-23.228263
0
LINE
8
0
10
70.0312865
20
-23.2
11
52.7182522
21
-23.2
0
LINE
8
0
10
51.7469664
20
-22.9483146
11
29.2530336
21
-10.4516854
0
LINE
8
0
10
-8.8
20
-10.2
11
28.2817478
21
-10.2
0
LINE
8
0
10
-10.8
20
-8.2
11
-10.8
21
42.2
0
LINE
8
0
10
-8.8
20
44.2
11
7.0000002
21
44.2
0
LINE
8
0
10
7.3960398
20
44.239604
11
26.8039602
21
48.160396
0
LINE
8
0
10
27.1999998
20
48.2
11
42.6438349
21
48.2
0
LINE
8
0
10
43.6763229
20
48.4871168
11
46.312767
21
50.0763068
0
LINE
8
0
10
47.3688644
20
50.3632842
11
60.6943615
21
50.2059693
0
LINE
8
0
10
61.6420379
20
49.9544234
11
64.3469664
21
48.4516854
0
LINE
8
0
10
65.3182522
20
48.2
11
80.1092751
21
48.2
0
LINE
8
0
10
81.5958635
20
47.5379295
11
82.8
21
46.2
0
LINE
8
0
10
82.8
20
46.2
11
97.7958372
21
46.2
0
LINE
8
0
10
99.563413
20
45.1357754
11
100.236587
21
43.8642246
0
LINE
8
0
10
102.0041628
20
42.8
11
120.4
21
42.8
0
LINE
8
0
10
122.4
20
40.8
11
122.4
21
-8.1895797
0
ARC
8
0
10
120.4744775
20
-15.3549496
40
2
50
323.999998
51
0.5972505
0
ARC
8
0
10
106.0510406
20
-35.2071073
40
2
50
233.999998
51
323.999998
0
ARC
8
0
10
91.4039484
20
-29.5096438
40
2
50
53.999998
51
97.6703937
0
ARC
8
0
10
86.8802891
20
-26.0827726
40
2
50
251.9999994
51
277.6703937
0
ARC
8
0
10
72.5213389
20
-25.6231157
40
2
50
71.9999994
51
80.3562727
0
ARC
8
0
10
70.0312865
20
-25.2
40
2
50
80.3562727
51
90
0
ARC
8
0
10
52.7182522
20
-21.2
40
2
50
240.9453981
51
270
0
ARC
8
0
10
28.2817478
20
-12.2
40
2
50
60.9453981
51
90
0
ARC
8
0
10
-8.8
20
-8.2
40
2
50
180
51
270
0
ARC
8
0
10
-8.8
20
42.2
40
2
50
90
51
180
0
ARC
8
0
10
7.0000002
20
46.2
40
2
50
270
51
281.4211864
0
ARC
8
0
10
27.1999998
20
46.2
40
2
50
90
51
101.4211864
0
ARC
8
0
10
42.6438349
20
50.2
40
2
50
270
51
301.0806406
0
ARC
8
0
10
47.345255
20
48.3634236
40
2
50
89.3236248
51
121.0806406
0
ARC
8
0
10
60.6707521
20
48.2061087
40
2
50
60.9453981
51
89.3236248
0
ARC
8
0
10
65.3182522
20
50.2
40
2
50
240.9453981
51
270
0
ARC
8
0
10
80.1092751
20
46.2
40
2
50
41.9872129
51
90
0
ARC
8
0
10
97.7958372
20
44.2
40
2
50
27.8972704
51
90
0
ARC
8
0
10
102.0041628
20
44.8
40
2
50
207.8972704
51
270
0
ARC
8
0
10
120.4
20
40.8
40
2
50
0
51
90
0
ARC
8
0
10
124.4
20
-8.1895797
40
2
50
180
51
180.5972505
0
LINE
8
0
10
-6.75
20
-8.25
11
6.75
21
-8.25
0
LINE
8
0
10
8.75
20
-6.25
11
8.75
21
6.25
0
LINE
8
0
10
6.75
20
8.25
11
-6.75
21
8.25
0
LINE
8
0
10
-8.75
20
6.25
11
-8.75
21
-6.25
0
LINE
8
0
10
-6.75
20
8.75
11
6.75
21
8.75
0
LINE
8
0
10
8.75
20
10.75
11
8.75
21
23.25
0
LINE
8
0
10
6.75
20
25.25
11
-6.75
21
25.25
0
LINE
8
0
10
-8.75
20
23.25
11
-8.75
21
10.75
0
LINE
8
0
10
-6.75
20
25.75
11
6.75
21
25.75
0
LINE
8
0
10
8.75
20
27.75
11
8.75
21
40.25
0
LINE
8
0
10
6.75
20
42.25
11
-6.75
21
42.25
0
LINE
8
0
10
-8.75
20
40.25
11
-8.75
21
27.75
0
LINE
8
0
10
11.25
20
-8.25
11
24.75
21
-8.25
0
LINE
8
0
10
26.75
20
-6.25
11
26.75
21
6.25
0
LINE
8
0
10
24.75
20
8.25
11
11.25
21
8.25
0
LINE
8
0
10
9.25
20
6.25
11
9.25
21
-6.25
0
LINE
8
0
10
11.25
20
8.75
11
24.75
21
8.75
0
LINE
8
0
10
26.75
20
10.75
11
26.75
21
23.25
0
LINE
8
0
10
24.75
20
25.25
11
11.25
21
25.25
0
LINE
8
0
10
9.25
20
23.25
11
9.25
21
10.75
0
LINE
8
0
10
11.25
20
25.75
11
24.75
21
25.75
0
LINE
8
0
10
26.75
20
27.75
11
26.75
21
40.25
0
LINE
8
0
10
24.75
20
42.25
11
11.25
21
42.25
0
LINE
8
0
10
9.25
20
40.25
11
9.25
21
27.75
0
LINE
8
0
10
29.25
20
-4.25
11
42.75
21
-4.25
0
LINE
8
0
10
44.75
20
-2.25
11
44.75
21
10.25
0
LINE
8
0
10
42.75
20
12.25
11
29.25
21
12.25
0
LINE
8
0
10
27.25
20
10.25
11
27.25
21
-2.25
0
LINE
8
0
10
29.25
20
12.75
11
42.75
21
12.75
0
LINE
8
0
10
44.75
20
14.75
11
44.75
21
27.25
0
LINE
8
0
10
42.75
20
29.25
11
29.25
21
29.25
0
LINE
8
0
10
27.25
20
27.25
11
27.25
21
14.75
0
LINE
8
0
10
29.25
20
29.75
11
42.75
21
29.75
0
LINE
8
0
10
44.75
20
31.75
11
44.75
21
44.25
0
LINE
8
0
10
42.75
20
46.25
11
29.25
21
46.25
0
LINE
8
0
10
27.25
20
44.25
11
27.25
21
31.75
0
LINE
8
0
10
47.25
20
-2.25
11
60.75
21
-2.25
0
LINE
8
0
10
62.75
20
-0.25
11
62.75
21
12.25
0
LINE
8
0
10
60.75
20
14.25
11
47.25
21
14.25
0
LINE
8
0
10
45.25
20
12.25
11
45.25
21
-0.25
0
LINE
8
0
10
47.25
20
14.75
11
60.75
21
14.75
0
LINE
8
0
10
62.75
20
16.75
11
62.75
21
29.25
0
LINE
8
0
10
60.75
20
31.25
11
47.25
21
31.25
0
LINE
8
0
10
45.25
20
29.25
11
45.25
21
16.75
0
LINE
8
0
10
47.25
20
31.75
11
60.75
21
31.75
0
LINE
8
0
10
62.75
20
33.75
11
62.75
21
46.25
0
LINE
8
0
10
60.75
20
48.25
11
47.25
21
48.25
0
LINE
8
0
10
45.25
20
46.25
11
45.25
21
33.75
0
LINE
8
0
10
65.25
20
-4.25
11
78.75
21
-4.25
0
LINE
8
0
10
80.75
20
-2.25
11
80.75
21
10.25
0
LINE
8
0
10
78.75
20
12.25
11
65.25
21
12.25
0
LINE
8
0
10
63.25
20
10.25
11
63.25
21
-2.25
0
LINE
8
0
10
65.25
20
12.75
11
78.75
21
12.75
0
LINE
8
0
10
80.75
20
14.75
11
80.75
21
27.25
0
LINE
8
0
10
78.75
20
29.25
11
65.25
21
29.25
0
LINE
8
0
10
63.25
20
27.25
11
63.25
21
14.75
0
LINE
8
0
10
65.25
20
29.75
11
78.75
21
29.75
0
LINE
8
0
10
80.75
20
31.75
11
80.75
21
44.25
0
LINE
8
0
10
78.75
20
46.25
11
65.25
21
46.25
0
LINE
8
0
10
63.25
20
44.25
11
63.25
21
31.75
0
LINE
8
0
10
83.25
20
-6.25
11
96.75
21
-6.25
0
LINE
8
0
10
98.75
20
-4.25
11
98.75
21
8.25
0
LINE
8
0
10
96.75
20
10.25
11
83.25
21
10.25
0
LINE
8
0
10
81.25
20
8.25
11
81.25
21
-4.25
0
LINE
8
0
10
83.25
20
10.75
11
96.75
21
10.75
0
LINE
8
0
10
98.75
20
12.75
11
98.75
21
25.25
0
LINE
8
0
10
96.75
20
27.25
11
83.25
21
27.25
0
LINE
8
0
10
81.25
20
25.25
11
81.25
21
12.75
0
LINE
8
0
10
83.25
20
27.75
11
96.75
21
27.75
0
LINE
8
0
10
98.75
20
29.75
11
98.75
21
42.25
0
LINE
8
0
10
96.75
20
44.25
11
83.25
21
44.25
0
LINE
8
0
10
81.25
20
42.25
11
81.25
21
29.75
0
LINE
8
0
10
56.25
20
-21.25
11
69.75
21
-21.25
0
LINE
8
0
10
71.75
20
-19.25
11
71.75
21
-6.75
0
LINE
8
0
10
69.75
20
-4.75
11
56.25
21
-4.75
0
LINE
8
0
10
54.25
20
-6.75
11
54.25
21
-19.25
0
LINE
8
0
10
74.0309783
20
-21.9603516
11
86.8702413
21
-26.132081
0
LINE
8
0
10
89.3903883
20
-24.848002
11
93.2531007
21
-12.9597954
0
LINE
8
0
10
91.9690217
20
-10.4396484
11
79.1297587
21
-6.267919
0
LINE
8
0
10
76.6096117
20
-7.551998
11
72.7468993
21
-19.4402046
0
LINE
8
0
10
95.4399069
20
-23.3568397
11
106.3616363
21
-31.2919406
0
LINE
8
0
10
106.6571535
20
-34.2877995
11
119.0006438
21
-17.2984425
0
LINE
8
0
10
116.0600931
20
-17.9431603
11
105.1383637
21
-10.0080594
0
LINE
8
0
10
92.4993562
20
-24.0015575
11
104.8428465
21
-7.0122005
0
ARC
8
0
10
87.4882753
20
-24.229968
40
2
50
251.9999994
51
341.9999994
0
ARC
8
0
10
91.3509877
20
-12.3417614
40
2
50
341.9999994
51
71.9999994
0
ARC
8
0
10
78.5117247
20
-8.170032
40
2
50
71.9999994
51
161.9999994
0
ARC
8
0
10
74.6490123
20
-20.0582386
40
2
50
161.9999994
51
251.9999994
0
ARC
8
0
10
107.5372069
20
-29.6739067
40
2
50
233.999998
51
323.999998
0
ARC
8
0
10
114.8845225
20
-19.5611943
40
2
50
323.999998
51
53.999998
0
ARC
8
0
10
103.9627931
20
-11.6260933
40
2
50
53.999998
51
143.999998
0
ARC
8
0
10
96.6154775
20
-21.7388057
40
2
50
143.999998
51
233.999998
0
ARC
8
0
10
6.75
20
-6.25
40
2
50
270
51
0
0
ARC
8
0
10
6.75
20
6.25
40
2
50
0
51
90
0
ARC
8
0
10
-6.75
20
6.25
40
2
50
90
51
180
0
ARC
8
0
10
-6.75
20
-6.25
40
2
50
180
51
270
0
ARC
8
0
10
6.75
20
10.75
40
2
50
270
51
0
0
ARC
8
0
10
6.75
20
23.25
40
2
50
0
51
90
0
ARC
8
0
10
-6.75
20
23.25
40
2
50
90
51
180
0
ARC
8
0
10
-6.75
20
10.75
40
2
50
180
51
270
0
ARC
8
0
10
6.75
20
27.75
40
2
50
270
51
0
0
ARC
8
0
10
6.75
20
40.25
40
2
50
0
51
90
0
ARC
8
0
10
-6.75
20
40.25
40
2
50
90
51
180
0
ARC
8
0
10
-6.75
20
27.75
40
2
50
180
51
270
0
ARC
8
0
10
24.75
20
-6.25
40
2
50
270
51
0
0
ARC
8
0
10
24.75
20
6.25
40
2
50
0
51
90
0
ARC
8
0
10
11.25
20
6.25
40
2
50
90
51
180
0
ARC
8
0
10
11.25
20
-6.25
40
2
50
180
51
270
0
ARC
8
0
10
24.75
20
10.75
40
2
50
270
51
0
0
ARC
8
0
10
24.75
20
23.25
40
2
50
0
51
90
0
ARC
8
0
10
11.25
20
23.25
40
2
50
90
51
180
0
ARC
8
0
10
11.25
20
10.75
40
2
50
180
51
270
0
ARC
8
0
10
24.75
20
27.75
40
2
50
270
51
0
0
ARC
8
0
10
24.75
20
40.25
40
2
50
0
51
90
0
ARC
8
0
10
11.25
20
40.25
40
2
50
90
51
180
0
ARC
8
0
10
11.25
20
27.75
40
2
50
180
51
270
0
ARC
8
0
10
42.75
20
-2.25
40
2
50
270
51
0
0
ARC
8
0
10
42.75
20
10.25
40
2
50
0
51
90
0
ARC
8
0
10
29.25
20
10.25
40
2
50
90
51
180
0
ARC
8
0
10
29.25
20
-2.25
40
2
50
180
51
270
0
ARC
8
0
10
42.75
20
14.75
40
2
50
270
51
0
0
ARC
8
0
10
42.75
20
27.25
40
2
50
0
51
90
0
ARC
8
0
10
29.25
20
27.25
40
2
50
90
51
180
0
ARC
8
0
10
29.25
20
14.75
40
2
50
180
51
270
0
ARC
8
0
10
42.75
20
31.75
40
2
50
270
51
0
0
ARC
8
0
10
42.75
20
44.25
40
2
50
0
51
90
0
ARC
8
0
10
29.25
20
44.25
40
2
50
90
51
180
0
ARC
8
0
10
29.25
20
31.75
40
2
50
180
51
270
0
ARC
8
0
10
60.75
20
-0.25
40
2
50
270
51
0
0
ARC
8
0
10
60.75
20
12.25
40
2
50
0
51
90
0
ARC
8
0
10
47.25
20
12.25
40
2
50
90
51
180
0
ARC
8
0
10
47.25
20
-0.25
40
2
50
180
51
270
0
ARC
8
0
10
60.75
20
16.75
40
2
50
270
51
0
0
ARC
8
0
10
60.75
20
29.25
40
2
50
0
51
90
0
ARC
8
0
10
47.25
20
29.25
40
2
50
90
51
180
0
ARC
8
0
10
47.25
20
16.75
40
2
50
180
51
270
0
ARC
8
0
10
60.75
20
33.75
40
2
50
270
51
0
0
ARC
8
0
10
60.75
20
46.25
40
2
50
0
51
90
0
ARC
8
0
10
47.25
20
46.25
40
2
50
90
51
180
0
ARC
8
0
10
47.25
20
33.75
40
2
50
180
51
270
0
ARC
8
0
10
78.75
20
-2.25
40
2
50
270
51
0
0
ARC
8
0
10
78.75
20
10.25
40
2
50
0
51
90
0
ARC
8
0
10
65.25
20
10.25
40
2
50
90
51
180
0
ARC
8
0
10
65.25
20
-2.25
40
2
50
180
51
270
0
ARC
8
0
10
78.75
20
14.75
40
2
50
270
51
0
0
ARC
8
0
10
78.75
20
27.25
40
2
50
0
51
90
0
ARC
8
0
10
65.25
20
27.25
40
2
50
90
51
180
0
ARC
8
0
10
65.25
20
14.75
40
2
50
180
51
270
0
ARC
8
0
10
78.75
20
31.75
40
2
50
270
51
0
0
ARC
8
0
10
78.75
20
44.25
40
2
50
0
51
90
0
ARC
8
0
10
65.25
20
44.25
40
2
50
90
51
180
0
ARC
8
0
10
65.25
20
31.75
40
2
50
180
51
270
0
ARC
8
0
10
96.75
20
-4.25
40
2
50
270
51
0
0
ARC
8
0
10
96.75
20
8.25
40
2
50
0
51
90
0
ARC
8
0
10
83.25
20
8.25
40
2
50
90
51
180
0
ARC
8
0
10
83.25
20
-4.25
40
2
50
180
51
270
0
ARC
8
0
10
96.75
20
12.75
40
2
50
270
51
0
0
ARC
8
0
10
96.75
20
25.25
40
2
50
0
51
90
0
ARC
8
0
10
83.25
20
25.25
40
2
50
90
51
180
0
ARC
8
0
10
83.25
20
12.75
40
2
50
180
51
270
0
ARC
8
0
10
96.75
20
29.75
40
2
50
270
51
0
0
ARC
8
0
10
96.75
20
42.25
40
2
50
0
51
90
0
ARC
8
0
10
83.25
20
42.25
40
2
50
90
51
180
0
ARC
8
0
10
83.25
20
29.75
40
2
50
180
51
270
0
ARC
8
0
10
69.75
20
-19.25
40
2
50
270
51
0
0
ARC
8
0
10
69.75
20
-6.75
40
2
50
0
51
90
0
ARC
8
0
10
56.25
20
-6.75
40
2
50
90
51
180
0
ARC
8
0
10
56.25
20
-19.25
40
2
50
180
51
270
0
LINE
8
0
10
92.9418195
20
-26.795162
11
103.863549
21
-34.7302629
0
LINE
8
0
10
118.5581805
20
-14.504838
11
107.636451
21
-6.5697371
0
ARC
8
0
10
105.0391195
20
-33.1122289
40
2
50
233.999998
51
323.999998
0
ARC
8
0
10
117.3826099
20
-16.122872
40
2
50
323.999998
51
53.999998
0
ARC
8
0
10
106.4608805
20
-8.1877711
40
2
50
53.999998
51
143.999998
0
ARC
8
0
10
94.1173901
20
-25.177128
40
2
50
143.999998
51
233.999998
0
ENDSEC
0
EOF