0
SECTION
2
HEADER
9
$INSUNITS
70
4
0
ENDSEC
0
SECTION
2
TABLES
0
TABLE
2
LTYPE
0
LTYPE
72
65
70
64
2
CONTINUOUS
3
______
73
0
40
0
0
ENDTAB
0
TABLE
2
LAYER
0
ENDTAB
0
ENDSEC
0
SECTION
2
ENTITIES
0
LINE
8
0
10
122.4001087
20
-8.2104273
11
122.4743688
21
-15.334102
0
LINE
8
0
10
122.0925115
20
-16.5305201
11
107.6690746
21
-36.3826779
0
LINE
8
0
10
104.8754701
20
-36.8251413
11
92.5795189
21
-27.8916099
0
LINE
8
0
10
91.1370002
20
-27.5275392
11
87.1472373
21
-28.0648772
0
LINE
8
0
10
86.2622551
20
-27.9848856
11
73.1393729
21
-23.7210027
0
LINE
8
0
10
72.8563813
20
-23.6513787
11
70.3663289
21
-23.228263
0
LINE
8
0
10
70.0312865
20
-23.2
11
52.7182522
21
-23.2
0
LINE
8
0
10
51.7469664
20
-22.9483146
11
29.2530336
21
-10.4516854
0
LINE
8
0
10
-8.8
20
-10.2
11
28.2817478
21
-10.2
0
LINE
8
0
10
-10.8
20
-8.2
11
-10.8
21
42.2
0
LINE
8
0
10
-8.8
20
44.2
11
7.0000002
21
44.2
0
LINE
8
0
10
7.3960398
20
44.239604
11
26.8039602
21
48.160396
0
LINE
8
0
10
27.1999998
20
48.2
11
42.6438349
21
48.2
0
LINE
8
0
10
43.6763229
20
48.4871168
11
46.312767
21
50.0763068
0
LINE
8
0
10
47.3688644
20
50.3632842
11
60.6943615
21
50.2059693
0
LINE
8
0
10
61.6420379
20
49.9544234
11
64.3469664
21
48.4516854
0
LINE
8
0
10
65.3182522
20
48.2
11
80.1092751
21
48.2
0
LINE
8
0
10
81.5958635
20
47.5379295
11
82.8
21
46.2
0
LINE
8
0
10
82.8
20
46.2
11
97.7958372
21
46.2
0
LINE
8
0
10
99.563413
20
45.1357754
11
100.236587
21
43.8642246
0
LINE
8
0
10
102.0041628
20
42.8
11
120.4
21
42.8
0
LINE
8
0
10
122.4
20
40.8
11
122.4
21
-8.1895797
0
ARC
8
0
10
120.4744775
20
-15.3549496
40
2
50
323.999998
51
0.5972505
0
ARC
8
0
10
106.0510406
20
-35.2071073
40
2
50
233.999998
51
323.999998
0
ARC
8
0
10
91.4039484
20
-29.5096438
40
2
50
53.999998
51
97.6703937
0
ARC
8
0
10
86.8802891
20
-26.0827726
40
2
50
251.9999994
51
277.6703937
0
ARC
8
0
10
72.5213389
20
-25.6231157
40
2
50
71.9999994
51
80.3562727
0
ARC
8
0
10
70.0312865
20
-25.2
40
2
50
80.3562727
51
90
0
ARC
8
0
10
52.7182522
20
-21.2
40
2
50
240.9453981
51
270
0
ARC
8
0
10
28.2817478
20
-12.2
40
2
50
60.9453981
51
90
0
ARC
8
0
10
-8.8
20
-8.2
40
2
50
180
51
270
0
ARC
8
0
10
-8.8
20
42.2
40
2
50
90
51
180
0
ARC
8
0
10
7.0000002
20
46.2
40
2
50
270
51
281.4211864
0
ARC
8
0
10
27.1999998
20
46.2
40
2
50
90
51
101.4211864
0
ARC
8
0
10
42.6438349
20
50.2
40
2
50
270
51
301.0806406
0
ARC
8
0
10
47.345255
20
48.3634236
40
2
50
89.3236248
51
121.0806406
0
ARC
8
0
10
60.6707521
20
48.2061087
40
2
50
60.9453981
51
89.3236248
0
ARC
8
0
10
65.3182522
20
50.2
40
2
50
240.9453981
51
270
0
ARC
8
0
10
80.1092751
20
46.2
40
2
50
41.9872129
51
90
0
ARC
8
0
10
97.7958372
20
44.2
40
2
50
27.8972704
51
90
0
ARC
8
0
10
102.0041628
20
44.8
40
2
50
207.8972704
51
270
0
ARC
8
0
10
120.4
20
40.8
40
2
50
0
51
90
0
ARC
8
0
10
124.4
20
-8.1895797
40
2
50
180
51
180.5972505
0
LINE
8
0
10
124.4007976
20
-6.2282331
11
124.6678453
21
-15.6810646
0
LINE
8
0
10
124.2866769
20
-16.9131138
11
108.1115381
21
-39.1762824
0
LINE
8
0
10
105.3179335
20
-39.6187458
11
92.8730494
21
-30.5770082
0
LINE
8
0
10
91.7566551
20
-30.1959178
11
86.3639767
21
-30.036289
0
LINE
8
0
10
85.8051189
20
-29.9392776
11
72.5183044
21
-25.6221297
0
LINE
8
0
10
72.2415694
20
-25.5535791
11
70.3693887
21
-25.2293364
0
LINE
8
0
10
70.0280897
20
-25.2
11
52.7182522
21
-25.2
0
LINE
8
0
10
51.7469664
20
-24.9483146
11
29.2530336
21
-12.4516854
0
LINE
8
0
10
-10.8
20
-12.2
11
28.2817478
21
-12.2
0
LINE
8
0
10
-12.8
20
-10.2
11
-12.8
21
44.2
0
LINE
8
0
10
-10.8
20
46.2
11
7.0000002
21
46.2
0
LINE
8
0
10
7.3960398
20
46.239604
11
26.8039602
21
50.160396
0
LINE
8
0
10
27.1999998
20
50.2
11
42.6438349
21
50.2
0
LINE
8
0
10
43.6763229
20
50.4871168
11
46.312767
21
52.0763068
0
LINE
8
0
10
47.3688644
20
52.3632842
11
60.6943615
21
52.2059693
0
LINE
8
0
10
61.6420379
20
51.9544234
11
64.3469664
21
50.4516854
0
LINE
8
0
10
65.3182522
20
50.2
11
80.1092751
21
50.2
0
LINE
8
0
10
81.5958635
20
49.5379295
11
82.8
21
48.2
0
LINE
8
0
10
82.8
20
48.2
11
99.7958372
21
48.2
0
LINE
8
0
10
101.563413
20
47.1357754
11
102.236587
21
45.8642246
0
LINE
8
0
10
104.0041628
20
44.8
11
122.4
21
44.8
0
LINE
8
0
10
124.4
20
42.8
11
124.4
21
-6.1717545
0
ARC
8
0
10
122.6686429
20
-15.7375432
40
2
50
323.999998
51
1.6182078
0
ARC
8
0
10
106.4935041
20
-38.0007118
40
2
50
233.999998
51
323.999998
0
ARC
8
0
10
91.6974789
20
-32.1950422
40
2
50
53.999998
51
88.3044793
0
ARC
8
0
10
86.4231529
20
-28.0371646
40
2
50
251.9999994
51
268.3044793
0
ARC
8
0
10
71.9002704
20
-27.5242427
40
2
50
71.9999994
51
80.1744155
0
ARC
8
0
10
70.0280897
20
-27.2
40
2
50
80.1744155
51
90
0
ARC
8
0
10
52.7182522
20
-23.2
40
2
50
240.9453981
51
270
0
ARC
8
0
10
28.2817478
20
-14.2
40
2
50
60.9453981
51
90
0
ARC
8
0
10
-10.8
20
-10.2
40
2
50
180
51
270
0
ARC
8
0
10
-10.8
20
44.2
40
2
50
90
51
180
0
ARC
8
0
10
7.0000002
20
48.2
40
2
50
270
51
281.4211864
0
ARC
8
0
10
27.1999998
20
48.2
40
2
50
90
51
101.4211864
0
ARC
8
0
10
42.6438349
20
52.2
40
2
50
270
51
301.0806406
0
ARC
8
0
10
47.345255
20
50.3634236
40
2
50
89.3236248
51
121.0806406
0
ARC
8
0
10
60.6707521
20
50.2061087
40
2
50
60.9453981
51
89.3236248
0
ARC
8
0
10
65.3182522
20
52.2
40
2
50
240.9453981
51
270
0
ARC
8
0
10
80.1092751
20
48.2
40
2
50
41.9872129
51
90
0
ARC
8
0
10
99.7958372
20
46.2
40
2
50
27.8972704
51
90
0
ARC
8
0
10
104.0041628
20
46.8
40
2
50
207.8972704
51
270
0
ARC
8
0
10
122.4
20
42.8
40
2
50
0
51
90
0
ARC
8
0
10
126.4
20
-6.1717545
40
2
50
180
51
181.6182078
0
LINE
8
0
10
-7
20
-7
11
7
21
-7
0
LINE
8
0
10
7
20
-7
11
7
21
7
0
LINE
8
0
10
7
20
7
11
-7
21
7
0
LINE
8
0
10
-7
20
7
11
-7
21
-7
0
LINE
8
0
10
-7
20
10
11
7
21
10
0
LINE
8
0
10
7
20
10
11
7
21
24
0
LINE
8
0
10
7
20
24
11
-7
21
24
0
LINE
8
0
10
-7
20
24
11
-7
21
10
0
LINE
8
0
10
-7
20
27
11
7
21
27
0
LINE
8
0
10
7
20
27
11
7
21
41
0
LINE
8
0
10
7
20
41
11
-7
21
41
0
LINE
8
0
10
-7
20
41
11
-7
21
27
0
LINE
8
0
10
11
20
-7
11
25
21
-7
0
LINE
8
0
10
25
20
-7
11
25
21
7
0
LINE
8
0
10
25
20
7
11
11
21
7
0
LINE
8
0
10
11
20
7
11
11
21
-7
0
LINE
8
0
10
11
20
10
11
25
21
10
0
LINE
8
0
10
25
20
10
11
25
21
24
0
LINE
8
0
10
25
20
24
11
11
21
24
0
LINE
8
0
10
11
20
24
11
11
21
10
0
LINE
8
0
10
11
20
27
11
25
21
27
0
LINE
8
0
10
25
20
27
11
25
21
41
0
LINE
8
0
10
25
20
41
11
11
21
41
0
LINE
8
0
10
11
20
41
11
11
21
27
0
LINE
8
0
10
29
20
-3
11
43
21
-3
0
LINE
8
0
10
43
20
-3
11
43
21
11
0
LINE
8
0
10
43
20
11
11
29
21
11
0
LINE
8
0
10
29
20
11
11
29
21
-3
0
LINE
8
0
10
29
20
14
11
43
21
14
0
LINE
8
0
10
43
20
14
11
43
21
28
0
LINE
8
0
10
43
20
28
11
29
21
28
0
LINE
8
0
10
29
20
28
11
29
21
14
0
LINE
8
0
10
29
20
31
11
43
21
31
0
LINE
8
0
10
43
20
31
11
43
21
45
0
LINE
8
0
10
43
20
45
11
29
21
45
0
LINE
8
0
10
29
20
45
11
29
21
31
0
LINE
8
0
10
47
20
-1
11
61
21
-1
0
LINE
8
0
10
61
20
-1
11
61
21
13
0
LINE
8
0
10
61
20
13
11
47
21
13
0
LINE
8
0
10
47
20
13
11
47
21
-1
0
LINE
8
0
10
47
20
16
11
61
21
16
0
LINE
8
0
10
61
20
16
11
61
21
30
0
LINE
8
0
10
61
20
30
11
47
21
30
0
LINE
8
0
10
47
20
30
11
47
21
16
0
LINE
8
0
10
47
20
33
11
61
21
33
0
LINE
8
0
10
61
20
33
11
61
21
47
0
LINE
8
0
10
61
20
47
11
47
21
47
0
LINE
8
0
10
47
20
47
11
47
21
33
0
LINE
8
0
10
65
20
-3
11
79
21
-3
0
LINE
8
0
10
79
20
-3
11
79
21
11
0
LINE
8
0
10
79
20
11
11
65
21
11
0
LINE
8
0
10
65
20
11
11
65
21
-3
0
LINE
8
0
10
65
20
14
11
79
21
14
0
LINE
8
0
10
79
20
14
11
79
21
28
0
LINE
8
0
10
79
20
28
11
65
21
28
0
LINE
8
0
10
65
20
28
11
65
21
14
0
LINE
8
0
10
65
20
31
11
79
21
31
0
LINE
8
0
10
79
20
31
11
79
21
45
0
LINE
8
0
10
79
20
45
11
65
21
45
0
LINE
8
0
10
65
20
45
11
65
21
31
0
LINE
8
0
10
83
20
-5
11
97
21
-5
0
LINE
8
0
10
97
20
-5
11
97
21
9
0
LINE
8
0
10
97
20
9
11
83
21
9
0
LINE
8
0
10
83
20
9
11
83
21
-5
0
LINE
8
0
10
83
20
12
11
97
21
12
0
LINE
8
0
10
97
20
12
11
97
21
26
0
LINE
8
0
10
97
20
26
11
83
21
26
0
LINE
8
0
10
83
20
26
11
83
21
12
0
LINE
8
0
10
83
20
29
11
97
21
29
0
LINE
8
0
10
97
20
29
11
97
21
43
0
LINE
8
0
10
97
20
43
11
83
21
43
0
LINE
8
0
10
83
20
43
11
83
21
29
0
LINE
8
0
10
56
20
-20
11
70
21
-20
0
LINE
8
0
10
70
20
-20
11
70
21
-6
0
LINE
8
0
10
70
20
-6
11
56
21
-6
0
LINE
8
0
10
56
20
-6
11
56
21
-20
0
LINE
8
0
10
74.1794854
20
-20.6942767
11
87.4942767
21
-25.0205146
0
LINE
8
0
10
87.4942767
20
-25.0205146
11
91.8205146
21
-11.7057233
0
LINE
8
0
10
91.8205146
20
-11.7057233
11
78.5057233
21
-7.3794854
0
LINE
8
0
10
78.5057233
20
-7.3794854
11
74.1794854
21
-20.6942767
0
LINE
8
0
10
95.9723843
20
-22.1986222
11
107.2986222
21
-30.4276157
0
LINE
8
0
10
107.2986222
20
-30.4276157
11
115.5276157
21
-19.1013778
0
LINE
8
0
10
115.5276157
20
-19.1013778
11
104.2013778
21
-10.8723843
0
LINE
8
0
10
104.2013778
20
-10.8723843
11
95.9723843
21
-22.1986222
0
CIRCLE
8
0
10
95.2707341
20
-15.5085036
40
2
0
CIRCLE
8
0
10
9
20
25.5
40
2
0
CIRCLE
8
0
10
46
20
-13
40
2
0
CIRCLE
8
0
10
9
20
8.5
40
2
0
CIRCLE
8
0
10
81
20
28.5
40
2
0
CIRCLE
8
0
10
95.2707341
20
-15.5085036
40
1
0
CIRCLE
8
0
10
9
20
25.5
40
1
0
CIRCLE
8
0
10
46
20
-13
40
1
0
CIRCLE
8
0
10
9
20
8.5
40
1
0
CIRCLE
8
0
10
81
20
28.5
40
1
0
ENDSEC
0
EOF