<svg width="133.274mm" height="87.571mm" viewBox="0 0 133.274 87.571" xmlns="http://www.w3.org/2000/svg"><g id="svgGroup" stroke-linecap="round" fill-rule="evenodd" font-size="9pt" stroke="#000" stroke-width="0.25mm" fill="none" style="stroke:#000;stroke-width:0.25mm;fill:none"><path d="M 133.2 58.574 L 133.274 65.698 A 2 2 0 0 1 132.893 66.894 L 118.469 86.746 A 2 2 0 0 1 115.675 87.189 L 103.38 78.255 A 2 2 0 0 0 101.937 77.891 L 97.947 78.428 A 2 2 0 0 1 97.062 78.348 L 83.939 74.084 A 2 2 0 0 0 83.656 74.015 L 81.166 73.592 A 2 2 0 0 0 80.831 73.563 L 63.518 73.563 A 2 2 0 0 1 62.547 73.312 L 40.053 60.815 A 2 2 0 0 0 39.082 60.563 L 2 60.563 A 2 2 0 0 1 0 58.563 L 0 8.163 A 2 2 0 0 1 2 6.163 L 17.8 6.163 A 2 2 0 0 0 18.196 6.124 L 37.604 2.203 A 2 2 0 0 1 38 2.163 L 53.444 2.163 A 2 2 0 0 0 54.476 1.876 L 57.113 0.287 A 2 2 0 0 1 58.169 0 L 71.494 0.157 A 2 2 0 0 1 72.442 0.409 L 75.147 1.912 A 2 2 0 0 0 76.118 2.163 L 90.909 2.163 A 2 2 0 0 1 92.396 2.825 L 93.6 4.163 L 108.596 4.163 A 2 2 0 0 1 110.363 5.228 L 111.037 6.499 A 2 2 0 0 0 112.804 7.563 L 131.2 7.563 A 2 2 0 0 1 133.2 9.563 L 133.2 58.553 A 2 2 0 0 0 133.2 58.574 Z M 117.457 84.651 L 129.801 67.662 A 2 2 0 0 0 129.358 64.868 L 118.436 56.933 A 2 2 0 0 0 115.643 57.376 L 103.299 74.365 A 2 2 0 0 0 103.742 77.159 L 114.664 85.094 A 2 2 0 0 0 117.457 84.651 Z M 84.831 72.324 L 97.67 76.496 A 2 2 0 0 0 100.19 75.211 L 104.053 63.323 A 2 2 0 0 0 102.769 60.803 L 89.93 56.631 A 2 2 0 0 0 87.41 57.915 L 83.547 69.804 A 2 2 0 0 0 84.831 72.324 Z M 4.05 58.613 L 17.55 58.613 A 2 2 0 0 0 19.55 56.613 L 19.55 44.113 A 2 2 0 0 0 17.55 42.113 L 4.05 42.113 A 2 2 0 0 0 2.05 44.113 L 2.05 56.613 A 2 2 0 0 0 4.05 58.613 Z M 4.05 41.613 L 17.55 41.613 A 2 2 0 0 0 19.55 39.613 L 19.55 27.113 A 2 2 0 0 0 17.55 25.113 L 4.05 25.113 A 2 2 0 0 0 2.05 27.113 L 2.05 39.613 A 2 2 0 0 0 4.05 41.613 Z M 4.05 24.613 L 17.55 24.613 A 2 2 0 0 0 19.55 22.613 L 19.55 10.113 A 2 2 0 0 0 17.55 8.113 L 4.05 8.113 A 2 2 0 0 0 2.05 10.113 L 2.05 22.613 A 2 2 0 0 0 4.05 24.613 Z M 22.05 58.613 L 35.55 58.613 A 2 2 0 0 0 37.55 56.613 L 37.55 44.113 A 2 2 0 0 0 35.55 42.113 L 22.05 42.113 A 2 2 0 0 0 20.05 44.113 L 20.05 56.613 A 2 2 0 0 0 22.05 58.613 Z M 22.05 41.613 L 35.55 41.613 A 2 2 0 0 0 37.55 39.613 L 37.55 27.113 A 2 2 0 0 0 35.55 25.113 L 22.05 25.113 A 2 2 0 0 0 20.05 27.113 L 20.05 39.613 A 2 2 0 0 0 22.05 41.613 Z M 22.05 24.613 L 35.55 24.613 A 2 2 0 0 0 37.55 22.613 L 37.55 10.113 A 2 2 0 0 0 35.55 8.113 L 22.05 8.113 A 2 2 0 0 0 20.05 10.113 L 20.05 22.613 A 2 2 0 0 0 22.05 24.613 Z M 40.05 54.613 L 53.55 54.613 A 2 2 0 0 0 55.55 52.613 L 55.55 40.113 A 2 2 0 0 0 53.55 38.113 L 40.05 38.113 A 2 2 0 0 0 38.05 40.113 L 38.05 52.613 A 2 2 0 0 0 40.05 54.613 Z M 40.05 37.613 L 53.55 37.613 A 2 2 0 0 0 55.55 35.613 L 55.55 23.113 A 2 2 0 0 0 53.55 21.113 L 40.05 21.113 A 2 2 0 0 0 38.05 23.113 L 38.05 35.613 A 2 2 0 0 0 40.05 37.613 Z M 40.05 20.613 L 53.55 20.613 A 2 2 0 0 0 55.55 18.613 L 55.55 6.113 A 2 2 0 0 0 53.55 4.113 L 40.05 4.113 A 2 2 0 0 0 38.05 6.113 L 38.05 18.613 A 2 2 0 0 0 40.05 20.613 Z M 58.05 52.613 L 71.55 52.613 A 2 2 0 0 0 73.55 50.613 L 73.55 38.113 A 2 2 0 0 0 71.55 36.113 L 58.05 36.113 A 2 2 0 0 0 56.05 38.113 L 56.05 50.613 A 2 2 0 0 0 58.05 52.613 Z M 58.05 35.613 L 71.55 35.613 A 2 2 0 0 0 73.55 33.613 L 73.55 21.113 A 2 2 0 0 0 71.55 19.113 L 58.05 19.113 A 2 2 0 0 0 56.05 21.113 L 56.05 33.613 A 2 2 0 0 0 58.05 35.613 Z M 58.05 18.613 L 71.55 18.613 A 2 2 0 0 0 73.55 16.613 L 73.55 4.113 A 2 2 0 0 0 71.55 2.113 L 58.05 2.113 A 2 2 0 0 0 56.05 4.113 L 56.05 16.613 A 2 2 0 0 0 58.05 18.613 Z M 76.05 54.613 L 89.55 54.613 A 2 2 0 0 0 91.55 52.613 L 91.55 40.113 A 2 2 0 0 0 89.55 38.113 L 76.05 38.113 A 2 2 0 0 0 74.05 40.113 L 74.05 52.613 A 2 2 0 0 0 76.05 54.613 Z M 76.05 37.613 L 89.55 37.613 A 2 2 0 0 0 91.55 35.613 L 91.55 23.113 A 2 2 0 0 0 89.55 21.113 L 76.05 21.113 A 2 2 0 0 0 74.05 23.113 L 74.05 35.613 A 2 2 0 0 0 76.05 37.613 Z M 76.05 20.613 L 89.55 20.613 A 2 2 0 0 0 91.55 18.613 L 91.55 6.113 A 2 2 0 0 0 89.55 4.113 L 76.05 4.113 A 2 2 0 0 0 74.05 6.113 L 74.05 18.613 A 2 2 0 0 0 76.05 20.613 Z M 94.05 56.613 L 107.55 56.613 A 2 2 0 0 0 109.55 54.613 L 109.55 42.113 A 2 2 0 0 0 107.55 40.113 L 94.05 40.113 A 2 2 0 0 0 92.05 42.113 L 92.05 54.613 A 2 2 0 0 0 94.05 56.613 Z M 94.05 39.613 L 107.55 39.613 A 2 2 0 0 0 109.55 37.613 L 109.55 25.113 A 2 2 0 0 0 107.55 23.113 L 94.05 23.113 A 2 2 0 0 0 92.05 25.113 L 92.05 37.613 A 2 2 0 0 0 94.05 39.613 Z M 94.05 22.613 L 107.55 22.613 A 2 2 0 0 0 109.55 20.613 L 109.55 8.113 A 2 2 0 0 0 107.55 6.113 L 94.05 6.113 A 2 2 0 0 0 92.05 8.113 L 92.05 20.613 A 2 2 0 0 0 94.05 22.613 Z M 67.05 71.613 L 80.55 71.613 A 2 2 0 0 0 82.55 69.613 L 82.55 57.113 A 2 2 0 0 0 80.55 55.113 L 67.05 55.113 A 2 2 0 0 0 65.05 57.113 L 65.05 69.613 A 2 2 0 0 0 67.05 71.613 Z M 113.145 60.814 A 2 2 0 0 1 115.938 60.371 L 126.86 68.307 A 2 2 0 0 1 127.303 71.1 M 119.955 81.213 A 2 2 0 0 1 117.162 81.655 L 106.24 73.72 A 2 2 0 0 1 105.797 70.927" vector-effect="non-scaling-stroke"/></g></svg>