<svg width="137.469mm" height="92.364mm" viewBox="0 0 137.469 92.364" xmlns="http://www.w3.org/2000/svg"><g id="svgGroup" stroke-linecap="round" fill-rule="evenodd" font-size="9pt" stroke="#000" stroke-width="0.25mm" fill="none" style="stroke:#000;stroke-width:0.25mm;fill:none"><path d="M 137.201 58.592 L 137.468 68.044 A 2 2 0 0 1 137.087 69.277 L 120.912 91.54 A 2 2 0 0 1 118.118 91.982 L 105.673 82.94 A 2 2 0 0 0 104.557 82.559 L 99.164 82.4 A 2 2 0 0 1 98.605 82.303 L 85.318 77.986 A 2 2 0 0 0 85.042 77.917 L 83.169 77.593 A 2 2 0 0 0 82.828 77.563 L 65.518 77.563 A 2 2 0 0 1 64.547 77.312 L 42.053 64.815 A 2 2 0 0 0 41.082 64.563 L 2 64.563 A 2 2 0 0 1 0 62.563 L 0 8.163 A 2 2 0 0 1 2 6.163 L 19.8 6.163 A 2 2 0 0 0 20.196 6.124 L 39.604 2.203 A 2 2 0 0 1 40 2.163 L 55.444 2.163 A 2 2 0 0 0 56.476 1.876 L 59.113 0.287 A 2 2 0 0 1 60.169 0 L 73.494 0.157 A 2 2 0 0 1 74.442 0.409 L 77.147 1.912 A 2 2 0 0 0 78.118 2.163 L 92.909 2.163 A 2 2 0 0 1 94.396 2.825 L 95.6 4.163 L 112.596 4.163 A 2 2 0 0 1 114.363 5.228 L 115.037 6.499 A 2 2 0 0 0 116.804 7.563 L 135.2 7.563 A 2 2 0 0 1 137.2 9.563 L 137.2 58.535 A 2 2 0 0 0 137.201 58.592 Z M 135.2 60.574 L 135.274 67.698 A 2 2 0 0 1 134.893 68.894 L 120.469 88.746 A 2 2 0 0 1 117.675 89.189 L 105.38 80.255 A 2 2 0 0 0 103.937 79.891 L 99.947 80.428 A 2 2 0 0 1 99.062 80.348 L 85.939 76.084 A 2 2 0 0 0 85.656 76.015 L 83.166 75.592 A 2 2 0 0 0 82.831 75.563 L 65.518 75.563 A 2 2 0 0 1 64.547 75.312 L 42.053 62.815 A 2 2 0 0 0 41.082 62.563 L 4 62.563 A 2 2 0 0 1 2 60.563 L 2 10.163 A 2 2 0 0 1 4 8.163 L 19.8 8.163 A 2 2 0 0 0 20.196 8.124 L 39.604 4.203 A 2 2 0 0 1 40 4.163 L 55.444 4.163 A 2 2 0 0 0 56.476 3.876 L 59.113 2.287 A 2 2 0 0 1 60.169 2 L 73.494 2.157 A 2 2 0 0 1 74.442 2.409 L 77.147 3.912 A 2 2 0 0 0 78.118 4.163 L 92.909 4.163 A 2 2 0 0 1 94.396 4.825 L 95.6 6.163 L 110.596 6.163 A 2 2 0 0 1 112.363 7.228 L 113.037 8.499 A 2 2 0 0 0 114.804 9.563 L 133.2 9.563 A 2 2 0 0 1 135.2 11.563 L 135.2 60.553 A 2 2 0 0 0 135.2 60.574 Z M 86.979 73.058 L 100.294 77.384 L 104.621 64.069 L 91.306 59.743 L 86.979 73.058 Z M 5.8 59.363 L 19.8 59.363 L 19.8 45.363 L 5.8 45.363 L 5.8 59.363 Z M 5.8 42.363 L 19.8 42.363 L 19.8 28.363 L 5.8 28.363 L 5.8 42.363 Z M 5.8 25.363 L 19.8 25.363 L 19.8 11.363 L 5.8 11.363 L 5.8 25.363 Z M 23.8 59.363 L 37.8 59.363 L 37.8 45.363 L 23.8 45.363 L 23.8 59.363 Z M 23.8 42.363 L 37.8 42.363 L 37.8 28.363 L 23.8 28.363 L 23.8 42.363 Z M 23.8 25.363 L 37.8 25.363 L 37.8 11.363 L 23.8 11.363 L 23.8 25.363 Z M 41.8 55.363 L 55.8 55.363 L 55.8 41.363 L 41.8 41.363 L 41.8 55.363 Z M 41.8 38.363 L 55.8 38.363 L 55.8 24.363 L 41.8 24.363 L 41.8 38.363 Z M 41.8 21.363 L 55.8 21.363 L 55.8 7.363 L 41.8 7.363 L 41.8 21.363 Z M 59.8 53.363 L 73.8 53.363 L 73.8 39.363 L 59.8 39.363 L 59.8 53.363 Z M 59.8 36.363 L 73.8 36.363 L 73.8 22.363 L 59.8 22.363 L 59.8 36.363 Z M 59.8 19.363 L 73.8 19.363 L 73.8 5.363 L 59.8 5.363 L 59.8 19.363 Z M 77.8 55.363 L 91.8 55.363 L 91.8 41.363 L 77.8 41.363 L 77.8 55.363 Z M 77.8 38.363 L 91.8 38.363 L 91.8 24.363 L 77.8 24.363 L 77.8 38.363 Z M 77.8 21.363 L 91.8 21.363 L 91.8 7.363 L 77.8 7.363 L 77.8 21.363 Z M 95.8 57.363 L 109.8 57.363 L 109.8 43.363 L 95.8 43.363 L 95.8 57.363 Z M 95.8 40.363 L 109.8 40.363 L 109.8 26.363 L 95.8 26.363 L 95.8 40.363 Z M 95.8 23.363 L 109.8 23.363 L 109.8 9.363 L 95.8 9.363 L 95.8 23.363 Z M 68.8 72.363 L 82.8 72.363 L 82.8 58.363 L 68.8 58.363 L 68.8 72.363 Z M 108.772 74.562 L 120.099 82.791 L 128.328 71.465 L 117.001 63.236 L 108.772 74.562 Z M 108.071 67.872 m -2 0 a 2 2 0 0 1 4 0 a 2 2 0 0 1 -4 0 z M 21.8 26.863 m -2 0 a 2 2 0 0 1 4 0 a 2 2 0 0 1 -4 0 z M 58.8 65.363 m -2 0 a 2 2 0 0 1 4 0 a 2 2 0 0 1 -4 0 z M 21.8 43.863 m -2 0 a 2 2 0 0 1 4 0 a 2 2 0 0 1 -4 0 z M 93.8 23.863 m -2 0 a 2 2 0 0 1 4 0 a 2 2 0 0 1 -4 0 z M 108.071 67.872 m -1 0 a 1 1 0 0 1 2 0 a 1 1 0 0 1 -2 0 z M 21.8 26.863 m -1 0 a 1 1 0 0 1 2 0 a 1 1 0 0 1 -2 0 z M 58.8 65.363 m -1 0 a 1 1 0 0 1 2 0 a 1 1 0 0 1 -2 0 z M 21.8 43.863 m -1 0 a 1 1 0 0 1 2 0 a 1 1 0 0 1 -2 0 z M 93.8 23.863 m -1 0 a 1 1 0 0 1 2 0 a 1 1 0 0 1 -2 0 z" vector-effect="non-scaling-stroke"/></g></svg>